<?xml version="1.0" encoding="UTF-8"?>
<svg version="1.1" xmlns="http://www.w3.org/2000/svg" width="180" height="134">
<path d="M0 0 C3.45659656 1.13165722 6.07186282 2.86389992 9 5 C10.55074219 6.09248047 10.55074219 6.09248047 12.1328125 7.20703125 C14.51632133 8.89349857 16.88382751 10.60034594 19.24609375 12.31640625 C22.99429071 15.02119949 26.82872681 17.58151637 30.6875 20.125 C54.26527062 35.76975112 54.26527062 35.76975112 59 47 C59.44995724 49.92356926 59.49143219 52.8110594 59.50390625 55.765625 C59.51389145 56.59906433 59.52387665 57.43250366 59.53416443 58.29119873 C59.54929856 60.04938828 59.55639168 61.80766335 59.5559082 63.56591797 C59.56244847 66.22901832 59.61691315 68.88834309 59.67382812 71.55078125 C59.78970185 82.62419981 58.90297873 89.80882507 50.99975586 98.09790039 C45.42139437 103.37415046 39.04835628 107.52205393 32.625 111.6875 C30.50972559 113.07707358 28.39515212 114.4677147 26.28125 115.859375 C25.23195312 116.54837891 24.18265625 117.23738281 23.1015625 117.94726562 C17.59036195 121.59479193 12.15205439 125.34785798 6.71337891 129.10229492 C5.98554199 129.60349854 5.25770508 130.10470215 4.5078125 130.62109375 C3.87504395 131.0586499 3.24227539 131.49620605 2.59033203 131.94702148 C-2.1378346 135.07759911 -7.50978816 134.51740216 -13 134 C-17.46279226 131.84829659 -20.2358803 129.09499214 -23 125 C-24.55867962 120.15640949 -24.22386095 115.09753501 -24.25 110.0625 C-24.270625 109.07314453 -24.29125 108.08378906 -24.3125 107.06445312 C-24.36223425 97.82009948 -24.36223425 97.82009948 -21 94 C-14.10932412 87.31170761 -5.7313357 82.34143201 2.27075195 77.08984375 C4.16118215 75.84650864 6.04381307 74.59203104 7.92578125 73.3359375 C8.50596512 72.95980316 9.08614899 72.58366882 9.68391418 72.19613647 C12.75030646 70.13951113 14.73520062 68.52511186 16 65 C15.08710205 64.38479492 14.1742041 63.76958984 13.23364258 63.13574219 C9.83097502 60.84184467 6.43022366 58.54512012 3.0300293 56.24755859 C1.56114568 55.25558104 0.09175094 54.26435988 -1.37817383 53.27392578 C-3.49697145 51.84608722 -5.61388583 50.41549386 -7.73046875 48.984375 C-8.38274948 48.54567078 -9.03503021 48.10696655 -9.70707703 47.65496826 C-22.31769933 39.11322982 -22.31769933 39.11322982 -24 31 C-24.12099869 28.21703008 -24.18509499 25.47009503 -24.1875 22.6875 C-24.19974609 21.95337891 -24.21199219 21.21925781 -24.22460938 20.46289062 C-24.23966659 14.80639511 -23.7338141 9.64266827 -20.546875 4.78515625 C-14.40085152 -1.10700974 -8.20059204 -1.30830255 0 0 Z " fill="#02FDC2" transform="translate(121,0)"/>
<path d="M0 0 C4.69343433 2.10395332 7.98356913 5.22708972 10 10 C10.66343126 14.13225036 10.69480533 18.19635061 10.6875 22.375 C10.72810547 23.47328125 10.76871094 24.5715625 10.81054688 25.703125 C10.83187346 30.78494632 10.69199814 34.96631731 7.51171875 39.0859375 C1.28517395 45.15648213 -6.57496375 49.60001932 -13.875 54.25 C-16.90205978 56.17941828 -19.91858648 58.12392074 -22.9296875 60.078125 C-23.62440155 60.51360657 -24.3191156 60.94908813 -25.03488159 61.39776611 C-28.66991075 63.59372862 -28.66991075 63.59372862 -30.68948364 67.14666748 C-30.84318924 68.06406708 -30.84318924 68.06406708 -31 69 C-30.27780273 69.26337158 -29.55560547 69.52674316 -28.81152344 69.7980957 C-25.93917599 71.02600179 -23.59131387 72.46853318 -21.015625 74.23046875 C-20.07976563 74.86919922 -19.14390625 75.50792969 -18.1796875 76.16601562 C-17.21289062 76.83310547 -16.24609375 77.50019531 -15.25 78.1875 C-13.82300781 79.15913086 -13.82300781 79.15913086 -12.3671875 80.15039062 C6.26780679 92.92684904 6.26780679 92.92684904 9 99 C9.57306179 102.80799186 9.60418844 106.52985487 9.5625 110.375 C9.59827148 111.87933594 9.59827148 111.87933594 9.63476562 113.4140625 C9.62140262 120.22028819 8.40381339 124.74042558 4 130 C-0.3813225 133.99473522 -4.67202285 134.36890461 -10.40234375 134.26171875 C-17.52798631 133.54379687 -23.06657591 128.64642246 -28.65991211 124.55151367 C-32.75827643 121.55960655 -36.92396746 118.6944163 -41.1484375 115.8828125 C-42.24422119 115.1508667 -43.34000488 114.4189209 -44.46899414 113.66479492 C-46.64920605 112.20913983 -48.83638939 110.76643473 -51.02905273 109.3293457 C-60.23189677 103.17560633 -69.08465312 96.73122385 -73 86 C-73.51184228 83.12912947 -73.56311149 80.35255191 -73.53125 77.44140625 C-73.5350769 76.65281723 -73.53890381 75.86422821 -73.54284668 75.05174255 C-73.54555046 73.39540316 -73.53829752 71.73901994 -73.52148438 70.08276367 C-73.50007901 67.57176787 -73.52132119 65.06364181 -73.546875 62.55273438 C-73.5635953 52.84077396 -73.28827728 44.98367359 -66.6875 37.3125 C-65.800625 36.549375 -64.91375 35.78625 -64 35 C-63.28070313 34.33097656 -63.28070313 34.33097656 -62.546875 33.6484375 C-58.3176094 29.80924979 -53.69517436 26.7328868 -48.921875 23.61328125 C-42.61381129 19.45289795 -36.4577727 15.06415016 -30.2734375 10.72314453 C-27.52519114 8.80114094 -24.76488265 6.89796319 -22 5 C-21.26346191 4.47849365 -20.52692383 3.9569873 -19.76806641 3.41967773 C-13.3484884 -0.93044123 -7.63998633 -0.9920856 0 0 Z " fill="#02FDC2" transform="translate(73,0)"/>
<path d="M0 0 C3.45659656 1.13165722 6.07186282 2.86389992 9 5 C10.55074219 6.09248047 10.55074219 6.09248047 12.1328125 7.20703125 C14.51632133 8.89349857 16.88382751 10.60034594 19.24609375 12.31640625 C22.99426217 15.0211789 26.82835803 17.58211253 30.6875 20.125 C48.09375723 31.64063584 48.09375723 31.64063584 51 36 C50.505 36.99 50.505 36.99 50 38 C48.68 38 47.36 38 46 38 C46.04125 39.03125 46.0825 40.0625 46.125 41.125 C46.00187604 44.9418429 45.60521896 47.54877924 44 51 C41.9375 52.125 41.9375 52.125 40 53 C39.40929986 54.94603274 39.40929986 54.94603274 39 57 C36.82567281 59.66202674 34.89304203 60.56308693 31.625 61.5 C28.06429575 62.62321402 24.97139196 63.65890331 22 66 C20.84478498 68.47130918 20.84478498 68.47130918 20 71 C18.875 72.75 18.875 72.75 17 74 C14.32007298 74.54659898 11.73671493 74.7756791 9 75 C8.93296875 75.60714844 8.8659375 76.21429688 8.796875 76.83984375 C8 79 8 79 5.890625 80.37890625 C5.01921875 80.76949219 4.1478125 81.16007812 3.25 81.5625 C1.89455078 82.19865234 1.89455078 82.19865234 0.51171875 82.84765625 C-0.31714844 83.22792969 -1.14601563 83.60820313 -2 84 C-6.11610091 86.10183877 -7.87952997 87.87066362 -10 92 C-11.32 91.67 -12.64 91.34 -14 91 C-14 90.01 -14 89.02 -14 88 C-12.01195501 86.41709709 -10.07760446 85.05469085 -7.9453125 83.69140625 C-7.02019363 83.07941628 -7.02019363 83.07941628 -6.0763855 82.45506287 C-4.09893026 81.14758332 -2.11309736 79.85373107 -0.125 78.5625 C2.48373603 76.86609324 5.08378451 75.15736612 7.6796875 73.44140625 C8.28183075 73.05586075 8.883974 72.67031525 9.50436401 72.27308655 C12.63784062 70.20205497 14.73367184 68.60530475 16 65 C15.08710205 64.38479492 14.1742041 63.76958984 13.23364258 63.13574219 C9.83097502 60.84184467 6.43022366 58.54512012 3.0300293 56.24755859 C1.56114568 55.25558104 0.09175094 54.26435988 -1.37817383 53.27392578 C-3.49697145 51.84608722 -5.61388583 50.41549386 -7.73046875 48.984375 C-8.38274948 48.54567078 -9.03503021 48.10696655 -9.70707703 47.65496826 C-22.31769933 39.11322982 -22.31769933 39.11322982 -24 31 C-24.12099869 28.21703008 -24.18509499 25.47009503 -24.1875 22.6875 C-24.19974609 21.95337891 -24.21199219 21.21925781 -24.22460938 20.46289062 C-24.23966659 14.80639511 -23.7338141 9.64266827 -20.546875 4.78515625 C-14.40085152 -1.10700974 -8.20059204 -1.30830255 0 0 Z " fill="#08EBB6" transform="translate(121,0)"/>
<path d="M0 0 C0.99 0.33 1.98 0.66 3 1 C-0.70290544 5.89574569 -4.5060075 8.99447569 -9.671875 12.2578125 C-11.15498636 13.22259716 -12.63805813 14.18744267 -14.12109375 15.15234375 C-16.44530415 16.6477124 -18.77201592 18.13908415 -21.10009766 19.62841797 C-23.35957586 21.07860165 -25.60966285 22.54254153 -27.859375 24.0078125 C-28.56036316 24.44956818 -29.26135132 24.89132385 -29.98358154 25.34646606 C-33.64701359 27.56821082 -33.64701359 27.56821082 -35.69146729 31.14865112 C-35.84419098 32.06506882 -35.84419098 32.06506882 -36 33 C-35.27780273 33.26337158 -34.55560547 33.52674316 -33.81152344 33.7980957 C-30.93917599 35.02600179 -28.59131387 36.46853318 -26.015625 38.23046875 C-25.07976563 38.86919922 -24.14390625 39.50792969 -23.1796875 40.16601562 C-22.21289062 40.83310547 -21.24609375 41.50019531 -20.25 42.1875 C-19.29867187 42.83525391 -18.34734375 43.48300781 -17.3671875 44.15039062 C1.26780679 56.92684904 1.26780679 56.92684904 4 63 C4.57306179 66.80799186 4.60418844 70.52985487 4.5625 74.375 C4.59827148 75.87933594 4.59827148 75.87933594 4.63476562 77.4140625 C4.62140262 84.22028819 3.40381339 88.74042558 -1 94 C-5.3813225 97.99473522 -9.67202285 98.36890461 -15.40234375 98.26171875 C-22.52469598 97.54412838 -28.05705238 92.6517034 -33.64892578 88.56030273 C-37.81143782 85.52289673 -42.04198147 82.60881437 -46.32421875 79.7421875 C-46.88122971 79.36859604 -47.43824066 78.99500458 -48.01213074 78.61009216 C-50.2754388 77.09242896 -52.53865673 75.57492753 -54.81222534 74.07266235 C-56.42378932 73.00734294 -58.02841243 71.93154697 -59.6328125 70.85546875 C-60.57012207 70.23309326 -61.50743164 69.61071777 -62.47314453 68.96948242 C-65.13240862 66.89679804 -67.00585232 64.70634328 -69 62 C-67.02 61.01 -65.04 60.02 -63 59 C-63.08701172 58.02160156 -63.08701172 58.02160156 -63.17578125 57.0234375 C-63.59035464 48.99255874 -63.59035464 48.99255874 -60.625 45.375 C-58 43 -58 43 -56 43 C-56 42.34 -56 41.68 -56 41 C-54.02 40.505 -54.02 40.505 -52 40 C-52 39.34 -52 38.68 -52 38 C-50.00715862 36.6559907 -48.00580329 35.32458708 -46 34 C-43.24436345 31.43224776 -41.09027267 29.13540901 -39 26 C-38.01 25.34 -37.02 24.68 -36 24 C-35.4225 23.46375 -34.845 22.9275 -34.25 22.375 C-31.12615795 20.46598541 -28.58586322 20.79312328 -25 21 C-25 20.34 -25 19.68 -25 19 C-24.34 18.34 -23.68 17.68 -23 17 C-21.68 17 -20.36 17 -19 17 C-19 16.01 -19 15.02 -19 14 C-17.68 13.67 -16.36 13.34 -15 13 C-15 12.34 -15 11.68 -15 11 C-14.21625 10.9175 -13.4325 10.835 -12.625 10.75 C-9.85250896 10.27193661 -9.85250896 10.27193661 -8.6875 7.9375 C-8.460625 7.298125 -8.23375 6.65875 -8 6 C-6.35 6 -4.7 6 -3 6 C-2.67 5.01 -2.34 4.02 -2 3 C-1.34 3 -0.68 3 0 3 C0 2.01 0 1.02 0 0 Z " fill="#07EBB6" transform="translate(78,36)"/>
<path d="M0 0 C2.64 0.66 5.28 1.32 8 2 C8 2.99 8 3.98 8 5 C9.299375 5.226875 10.59875 5.45375 11.9375 5.6875 C16.46299879 6.67656341 19.9564122 8.47045831 23.9140625 10.82421875 C26.50416359 12.2841821 29.14430401 13.19454729 32 14 C32.495 16.97 32.495 16.97 33 20 C34.32 20.33 35.64 20.66 37 21 C37.48 27.24 37.48 27.24 35.5 30.375 C31.9849369 32.65979101 29.1654919 32.72230054 25 33 C24.93296875 33.60714844 24.8659375 34.21429688 24.796875 34.83984375 C24 37 24 37 21.890625 38.37890625 C20.58351563 38.96478516 20.58351563 38.96478516 19.25 39.5625 C17.89455078 40.19865234 17.89455078 40.19865234 16.51171875 40.84765625 C15.68285156 41.22792969 14.85398437 41.60820313 14 42 C9.88389909 44.10183877 8.12047003 45.87066362 6 50 C4.68 49.67 3.36 49.34 2 49 C2 48.01 2 47.02 2 46 C3.98804499 44.41709709 5.92239554 43.05469085 8.0546875 41.69140625 C8.67143341 41.28341293 9.28817932 40.87541962 9.9236145 40.45506287 C11.90106974 39.14758332 13.88690264 37.85373107 15.875 36.5625 C18.48373603 34.86609324 21.08378451 33.15736612 23.6796875 31.44140625 C24.28183075 31.05586075 24.883974 30.67031525 25.50436401 30.27308655 C28.63784062 28.20205497 30.73367184 26.60530475 32 23 C31.06615479 22.37432129 30.13230957 21.74864258 29.17016602 21.10400391 C25.71378602 18.78648301 22.26144322 16.4630099 18.81030273 14.13769531 C17.31465754 13.13117662 15.8179152 12.12628626 14.32006836 11.12304688 C12.17012221 9.68263277 10.0241602 8.23645252 7.87890625 6.7890625 C7.20598038 6.34003571 6.5330545 5.89100891 5.83973694 5.42837524 C1.11387171 2.22774341 1.11387171 2.22774341 0 0 Z " fill="#1CD8AE" transform="translate(105,42)"/>
<path d="M0 0 C0.66 0.33 1.32 0.66 2 1 C1.67 1.99 1.34 2.98 1 4 C-1.0625 4.6875 -1.0625 4.6875 -3 5 C-3 5.99 -3 6.98 -3 8 C-3.9075 8.350625 -4.815 8.70125 -5.75 9.0625 C-9.67351808 11.40152039 -11.17683689 13.96739301 -13 18 C-13.51820312 19.12019531 -14.03640625 20.24039063 -14.5703125 21.39453125 C-16.73611369 27.24740754 -16.56882005 33.32864246 -16.6875 39.5 C-16.72166016 40.70398438 -16.75582031 41.90796875 -16.79101562 43.1484375 C-16.87297195 46.09886516 -16.94229384 49.04901516 -17 52 C-16.34 52 -15.68 52 -15 52 C-14.90203125 52.58007812 -14.8040625 53.16015625 -14.703125 53.7578125 C-13.68005744 59.10245855 -12.06910794 62.44925375 -9 67 C-9.25 69.375 -9.25 69.375 -10 71 C-14.7953628 67.80309147 -17.02434798 64.29586116 -19 59 C-19.51652801 56.12965584 -19.5631139 53.35277193 -19.53125 50.44140625 C-19.5350769 49.65281723 -19.53890381 48.86422821 -19.54284668 48.05174255 C-19.54555046 46.39540316 -19.53829752 44.73901994 -19.52148438 43.08276367 C-19.50007901 40.57176787 -19.52132119 38.06364181 -19.546875 35.55273438 C-19.5635953 25.84077396 -19.28827728 17.98367359 -12.6875 10.3125 C-11.800625 9.549375 -10.91375 8.78625 -10 8 C-9.41605469 7.484375 -8.83210937 6.96875 -8.23046875 6.4375 C-5.55971431 4.09848137 -2.96030891 1.97353928 0 0 Z " fill="#2DD5B4" transform="translate(19,27)"/>
<path d="M0 0 C4.66840892 2.09273503 8.05363321 5.20990809 10 10 C10.53764266 14.26024175 10.46767341 18.46263541 10.375 22.75 C10.37371094 23.89855469 10.37242188 25.04710938 10.37109375 26.23046875 C10.28111049 34.71888951 10.28111049 34.71888951 8 37 C8.33 28.75 8.66 20.5 9 12 C8.34 12 7.68 12 7 12 C5.65668346 10.00669158 4.32405988 8.00615134 3 6 C-0.81793293 3.45471138 -3.5935304 3.18828192 -8 4 C-11.44188102 5.37593096 -14.73353429 6.92924763 -18.046875 8.58984375 C-21 10 -21 10 -23.33203125 10.56640625 C-23.88246094 10.70949219 -24.43289062 10.85257813 -25 11 C-25.309375 11.66 -25.61875 12.32 -25.9375 13 C-26.288125 13.66 -26.63875 14.32 -27 15 C-29.625 15.75 -29.625 15.75 -32 16 C-32 16.99 -32 17.98 -32 19 C-36.95 19.495 -36.95 19.495 -42 20 C-39.24722868 17.09537626 -36.46081115 14.8158962 -33.12109375 12.6171875 C-32.20005859 12.00746094 -31.27902344 11.39773438 -30.33007812 10.76953125 C-29.37552734 10.14433594 -28.42097656 9.51914063 -27.4375 8.875 C-26.47908203 8.24207031 -25.52066406 7.60914063 -24.53320312 6.95703125 C-22.75847269 5.7854853 -20.98248399 4.61584163 -19.20483398 3.44873047 C-12.75694958 -0.78798153 -7.66976727 -0.70607754 0 0 Z " fill="#1CE5BB" transform="translate(73,0)"/>
<path d="M0 0 C7.16325358 3.68343013 13.70073215 8.14861757 20.26660156 12.78857422 C22.03733909 14.02609529 23.82395754 15.23674584 25.6171875 16.44140625 C26.20467773 16.83875977 26.79216797 17.23611328 27.39746094 17.64550781 C29.03625372 18.75254986 30.67819565 19.85492593 32.3203125 20.95703125 C34.76304461 22.81934742 36.33531526 24.44556997 38 27 C37.67 27.66 37.34 28.32 37 29 C35.68 29 34.36 29 33 29 C33.04125 30.03125 33.0825 31.0625 33.125 32.125 C33.00187604 35.9418429 32.60521896 38.54877924 31 42 C28.9375 43.125 28.9375 43.125 27 44 C26.40929986 45.94603274 26.40929986 45.94603274 26 48 C24.6875 49.8125 24.6875 49.8125 23 51 C20.8125 50.6875 20.8125 50.6875 19 50 C20.375 48.5 20.375 48.5 22 47 C22.66 47 23.32 47 24 47 C24.66 45.68 25.32 44.36 26 43 C26.66 43 27.32 43 28 43 C30.25068913 38.49862174 30.24661958 34.93239162 30 30 C29.67 29.67 29.34 29.34 29 29 C28.95936168 27.33382885 28.957279 25.66611905 29 24 C28.34 24 27.68 24 27 24 C27 22.68 27 21.36 27 20 C25.88625 19.71125 24.7725 19.4225 23.625 19.125 C20 18 20 18 18 16 C18 15.01 18 14.02 18 13 C16.96875 12.896875 15.9375 12.79375 14.875 12.6875 C10.97683932 11.99589085 8.34163625 11.09823672 5 9 C3.8125 7 3.8125 7 3 5 C2.46375 4.46375 1.9275 3.9275 1.375 3.375 C0.92125 2.92125 0.4675 2.4675 0 2 C0 1.34 0 0.68 0 0 Z " fill="#0DF9C2" transform="translate(134,9)"/>
<path d="M0 0 C2.3125 -0.25 2.3125 -0.25 5 0 C5.45375 0.61875 5.9075 1.2375 6.375 1.875 C8.71659821 4.93708996 11.34176874 5.17172122 15 6 C15 6.66 15 7.32 15 8 C16.98 7.01 18.96 6.02 21 5 C22 8 22 8 22 11 C22.66 11.33 23.32 11.66 24 12 C24 12.66 24 13.32 24 14 C24.66 14 25.32 14 26 14 C26 15.32 26 16.64 26 18 C26.71027344 18.08636719 27.42054687 18.17273438 28.15234375 18.26171875 C31.61245345 19.15878423 33.70838519 20.67290628 36.5625 22.8125 C37.49191406 23.49957031 38.42132813 24.18664062 39.37890625 24.89453125 C41.7611963 26.80817407 43.85217933 28.83382189 46 31 C50.877377 34.06253904 55.37916879 34.63776866 61 35 C61 35.33 61 35.66 61 36 C50.01642102 36.81026402 44.00138069 32.8894642 35.35107422 26.56030273 C31.18856218 23.52289673 26.95801853 20.60881437 22.67578125 17.7421875 C22.11877029 17.36859604 21.56175934 16.99500458 20.98786926 16.61009216 C18.7245612 15.09242896 16.46134327 13.57492753 14.18777466 12.07266235 C12.57621068 11.00734294 10.97158757 9.93154697 9.3671875 8.85546875 C8.42987793 8.23309326 7.49256836 7.61071777 6.52685547 6.96948242 C3.86759138 4.89679804 1.99414768 2.70634328 0 0 Z " fill="#0F8875" transform="translate(9,98)"/>
<path d="M0 0 C5.19696126 1.88178512 9.40158464 4.77577327 13 9 C11.02 8.67 9.04 8.34 7 8 C7 7.34 7 6.68 7 6 C5.741875 5.814375 4.48375 5.62875 3.1875 5.4375 C2.47980469 5.33308594 1.77210937 5.22867187 1.04296875 5.12109375 C-1.2025342 4.86095201 -1.2025342 4.86095201 -4 6 C-4.33 5.34 -4.66 4.68 -5 4 C-9.52933207 4.5328626 -12.32084616 6.38371282 -16 9 C-16.99 9.495 -16.99 9.495 -18 10 C-17.7525 9.0409375 -17.7525 9.0409375 -17.5 8.0625 C-16.96073333 6.19173179 -16.96073333 6.19173179 -17 5 C-19.84567314 7.5982233 -20.87667396 9.52727295 -21.20532227 13.4519043 C-21.24197998 14.39976807 -21.2786377 15.34763184 -21.31640625 16.32421875 C-21.35830078 17.35224609 -21.40019531 18.38027344 -21.44335938 19.43945312 C-21.48267578 20.51130859 -21.52199219 21.58316406 -21.5625 22.6875 C-21.60568359 23.77095703 -21.64886719 24.85441406 -21.69335938 25.97070312 C-21.79946838 28.64700791 -21.90152361 31.32340526 -22 34 C-21.01 34.33 -20.02 34.66 -19 35 C-17.875 37.4375 -17.875 37.4375 -17 40 C-16.67 40.66 -16.34 41.32 -16 42 C-19.84478875 40.54163185 -21.1822915 38.63541701 -23 35 C-24.21170456 30.92389004 -24.18385214 26.90807237 -24.1875 22.6875 C-24.19974609 21.95337891 -24.21199219 21.21925781 -24.22460938 20.46289062 C-24.23966659 14.80639511 -23.7338141 9.64266827 -20.546875 4.78515625 C-14.41836491 -1.09021972 -8.18130085 -1.34640837 0 0 Z " fill="#1DEEC1" transform="translate(121,0)"/>
<path d="M0 0 C-3.56353187 3.96571526 -7.75142984 6.62310993 -12.1875 9.5 C-21.27126009 15.46617926 -30.15571751 21.68585402 -39 28 C-39.66 27.67 -40.32 27.34 -41 27 C-40.67 26.34 -40.34 25.68 -40 25 C-40.33 24.34 -40.66 23.68 -41 23 C-39.02 22.67 -37.04 22.34 -35 22 C-35 21.34 -35 20.68 -35 20 C-33.68 19.67 -32.36 19.34 -31 19 C-30.67 17.35 -30.34 15.7 -30 14 C-28.68 14 -27.36 14 -26 14 C-26 13.34 -26 12.68 -26 12 C-24.36368108 10.95107762 -22.69514137 9.95093297 -21 9 C-20.67 8.67 -20.34 8.34 -20 8 C-18.33382885 7.95936168 -16.66611905 7.957279 -15 8 C-14.67 6.68 -14.34 5.36 -14 4 C-10.535 3.505 -10.535 3.505 -7 3 C-6.67 2.01 -6.34 1.02 -6 0 C-3 -1 -3 -1 0 0 Z " fill="#1DBB9E" transform="translate(163,104)"/>
<path d="M0 0 C4.82253425 4.43151796 8.03551108 8.45899227 8.40405273 15.15014648 C8.43039085 16.72360596 8.43936732 18.29742444 8.43359375 19.87109375 C8.4388356 20.7116481 8.44407745 21.55220245 8.44947815 22.41822815 C8.45587737 24.1890452 8.45458865 25.95990488 8.44604492 27.73071289 C8.43753608 30.42607013 8.46632189 33.11930491 8.49804688 35.81445312 C8.49965927 37.54166604 8.49908063 39.26888267 8.49609375 40.99609375 C8.51294472 42.19328285 8.51294472 42.19328285 8.53013611 43.41465759 C8.4606773 49.04865042 7.13971935 52.31630955 4 57 C2.59055152 54.18110303 3.3519141 51.89588167 3.72900391 48.85791016 C4.28599286 42.98393476 4.18458002 37.08293696 4.1875 31.1875 C4.19974609 29.89779297 4.21199219 28.60808594 4.22460938 27.27929688 C4.39051539 13.17533975 4.39051539 13.17533975 0 0 Z " fill="#24D2B0" transform="translate(172,36)"/>
<path d="M0 0 C0.33 0 0.66 0 1 0 C1.1465954 3.66623812 1.23449874 7.331712 1.3125 11 C1.35439453 12.02996094 1.39628906 13.05992188 1.43945312 14.12109375 C1.55064345 21.10384598 0.62272453 25.65266843 -4 31 C-7.06334926 34.08169267 -9.38989328 34.45505771 -13.6875 34.5 C-19.86850072 34.3786552 -24.00915113 32.52888304 -29 29 C-25.95460197 27.47730098 -23.29587348 28.52060022 -20 29 C-19.67 28.67 -19.34 28.34 -19 28 C-17.0437407 27.90072714 -15.08377091 27.87030271 -13.125 27.875 C-12.05507812 27.87242188 -10.98515625 27.86984375 -9.8828125 27.8671875 C-7 28 -7 28 -4 29 C-4 27.35 -4 25.7 -4 24 C-3.01 24 -2.02 24 -1 24 C-0.67 16.08 -0.34 8.16 0 0 Z " fill="#21ECC1" transform="translate(81,99)"/>
<path d="M0 0 C0.66 0.33 1.32 0.66 2 1 C1.8125 2.6875 1.8125 2.6875 1 5 C0.1646875 5.6084375 -0.670625 6.216875 -1.53125 6.84375 C-4.38718002 9.61367962 -4.39282783 12.071811 -4.48828125 15.95703125 C-4.45515564 18.24269855 -4.39568519 20.52810675 -4.3125 22.8125 C-4.28994141 23.98232422 -4.26738281 25.15214844 -4.24414062 26.35742188 C-4.18532091 29.23958769 -4.10317141 32.11913681 -4 35 C-3.11054687 35.433125 -3.11054687 35.433125 -2.203125 35.875 C0.71292884 37.36404877 3.35306944 39.07495959 6 41 C6 41.66 6 42.32 6 43 C11.94 42.505 11.94 42.505 18 42 C15.34500624 44.65499376 13.95036703 44.32897553 10.25 44.375 C4.98836927 44.28059275 1.97557151 43.67740364 -2 40 C-7.71031778 33.82668348 -7.20824635 28.10529778 -7.25 20.0625 C-7.270625 19.07314453 -7.29125 18.08378906 -7.3125 17.06445312 C-7.3490541 10.2699598 -6.56877256 6.71555957 -1.8125 1.6875 C-1.214375 1.130625 -0.61625 0.57375 0 0 Z " fill="#29B8A2" transform="translate(104,90)"/>
<path d="M0 0 C2.71755064 1.28094689 5.04442964 2.72818148 7.50488281 4.44921875 C8.38660156 5.06539063 9.26832031 5.6815625 10.17675781 6.31640625 C11.08425781 6.95835938 11.99175781 7.6003125 12.92675781 8.26171875 C13.84972656 8.90367188 14.77269531 9.545625 15.72363281 10.20703125 C22.54796671 15.00413655 22.54796671 15.00413655 23.67675781 17.26171875 C16.61009115 16.59505208 16.61009115 16.59505208 13.67675781 13.26171875 C11.07760244 12.07143891 11.07760244 12.07143891 8.67675781 11.26171875 C8.67675781 10.60171875 8.67675781 9.94171875 8.67675781 9.26171875 C5.70675781 9.26171875 2.73675781 9.26171875 -0.32324219 9.26171875 C-0.32324219 8.60171875 -0.32324219 7.94171875 -0.32324219 7.26171875 C0.33675781 6.93171875 0.99675781 6.60171875 1.67675781 6.26171875 C0.35675781 5.60171875 -0.96324219 4.94171875 -2.32324219 4.26171875 C-2.32324219 3.27171875 -2.32324219 2.28171875 -2.32324219 1.26171875 C-2.98324219 0.93171875 -3.64324219 0.60171875 -4.32324219 0.26171875 C-2.32324219 -0.73828125 -2.32324219 -0.73828125 0 0 Z " fill="#1EE3B8" transform="translate(53.3232421875,75.73828125)"/>
<path d="M0 0 C0.53915039 0.23750977 1.07830078 0.47501953 1.63378906 0.71972656 C-2.11621094 3.71972656 -2.11621094 3.71972656 -4.36621094 3.71972656 C-4.43324219 4.326875 -4.50027344 4.93402344 -4.56933594 5.55957031 C-5.36621094 7.71972656 -5.36621094 7.71972656 -7.47558594 9.09863281 C-8.34699219 9.48921875 -9.21839844 9.87980469 -10.11621094 10.28222656 C-11.01984375 10.70632812 -11.92347656 11.13042969 -12.85449219 11.56738281 C-14.09779297 12.13779297 -14.09779297 12.13779297 -15.36621094 12.71972656 C-19.48231185 14.82156533 -21.2457409 16.59039018 -23.36621094 20.71972656 C-24.68621094 20.38972656 -26.00621094 20.05972656 -27.36621094 19.71972656 C-27.36621094 18.72972656 -27.36621094 17.73972656 -27.36621094 16.71972656 C-25.13476562 14.80273438 -25.13476562 14.80273438 -22.03808594 12.67285156 C-21.21996429 12.10966217 -21.21996429 12.10966217 -20.38531494 11.53509521 C-19.22863931 10.74335539 -18.06834325 9.95688303 -16.90478516 9.17529297 C-15.12596147 7.97629879 -13.36512725 6.75381693 -11.60449219 5.52832031 C-10.47919786 4.76251448 -9.35292599 3.99814269 -8.22558594 3.23535156 C-7.19916992 2.53700195 -6.17275391 1.83865234 -5.11523438 1.11914062 C-2.36621094 -0.28027344 -2.36621094 -0.28027344 0 0 Z " fill="#20C0A3" transform="translate(134.3662109375,71.2802734375)"/>
<path d="M0 0 C0.66 0.33 1.32 0.66 2 1 C1.319375 1.5259375 1.319375 1.5259375 0.625 2.0625 C-3.43651735 6.90507838 -3.10901626 11.96724459 -2.75 18 C-2.31507457 22.91518132 -1.65808191 27.35737066 0 32 C-1.485 32.495 -1.485 32.495 -3 33 C-3.99 32.34 -4.98 31.68 -6 31 C-6.38818359 28.7409668 -6.38818359 28.7409668 -6.3984375 25.94921875 C-6.40230469 24.94052734 -6.40617187 23.93183594 -6.41015625 22.89257812 C-6.39855469 21.83490234 -6.38695313 20.77722656 -6.375 19.6875 C-6.38660156 18.64142578 -6.39820312 17.59535156 -6.41015625 16.51757812 C-6.40628906 15.50501953 -6.40242188 14.49246094 -6.3984375 13.44921875 C-6.39336182 12.06222778 -6.39336182 12.06222778 -6.38818359 10.6472168 C-5.72802231 6.145249 -3.31757574 3.00161614 0 0 Z " fill="#0FF6C1" transform="translate(105,3)"/>
<path d="M0 0 C0.99 0.33 1.98 0.66 3 1 C-0.57001298 5.66323687 -4.1342865 8.79061423 -9.05078125 11.9609375 C-9.70958786 12.39636871 -10.36839447 12.83179993 -11.04716492 13.28042603 C-13.1299399 14.65414722 -15.2209396 16.01470216 -17.3125 17.375 C-18.7355923 18.31033693 -20.15812428 19.24652698 -21.58007812 20.18359375 C-25.04698784 22.46563965 -28.52132927 24.73592676 -32 27 C-32.33 26.01 -32.66 25.02 -33 24 C-31.68 23.67 -30.36 23.34 -29 23 C-29 22.34 -29 21.68 -29 21 C-27.68 21 -26.36 21 -25 21 C-25 20.34 -25 19.68 -25 19 C-24.34 18.34 -23.68 17.68 -23 17 C-21.68 17 -20.36 17 -19 17 C-19 16.01 -19 15.02 -19 14 C-17.68 13.67 -16.36 13.34 -15 13 C-15 12.34 -15 11.68 -15 11 C-13.824375 10.87625 -13.824375 10.87625 -12.625 10.75 C-9.85250896 10.27193661 -9.85250896 10.27193661 -8.6875 7.9375 C-8.460625 7.298125 -8.23375 6.65875 -8 6 C-6.35 6 -4.7 6 -3 6 C-2.67 5.01 -2.34 4.02 -2 3 C-1.34 3 -0.68 3 0 3 C0 2.01 0 1.02 0 0 Z " fill="#21A993" transform="translate(78,36)"/>
<path d="M0 0 C6.66337875 3.42638855 12.77228352 7.50867838 18.88671875 11.81640625 C21.89564206 13.92680541 24.93455457 15.97322124 28 18 C24.96083486 18.97687451 23.01586454 19.105817 20 18 C19.34 17.34 18.68 16.68 18 16 C18 15.01 18 14.02 18 13 C16.96875 12.896875 15.9375 12.79375 14.875 12.6875 C10.97683932 11.99589085 8.34163625 11.09823672 5 9 C3.8125 7 3.8125 7 3 5 C2.46375 4.46375 1.9275 3.9275 1.375 3.375 C0.92125 2.92125 0.4675 2.4675 0 2 C0 1.34 0 0.68 0 0 Z " fill="#20B89C" transform="translate(134,9)"/>
<path d="M0 0 C0.66 0 1.32 0 2 0 C2.05800828 3.60409919 2.09359869 7.20807851 2.125 10.8125 C2.14175781 11.83666016 2.15851563 12.86082031 2.17578125 13.91601562 C2.18222656 14.89892578 2.18867187 15.88183594 2.1953125 16.89453125 C2.20578613 17.80050049 2.21625977 18.70646973 2.22705078 19.63989258 C2 22 2 22 0 25 C-0.66 24.67 -1.32 24.34 -2 24 C-2 24.99 -2 25.98 -2 27 C-4.3297361 30.23574459 -7.33079094 30.80351878 -11 32 C-11.33 32.66 -11.66 33.32 -12 34 C-14.0625 34.625 -14.0625 34.625 -16 35 C-14.84807997 31.5442399 -14.08865366 30.80171463 -11 29 C-8.25 28.8125 -8.25 28.8125 -6 29 C-5.731875 28.278125 -5.46375 27.55625 -5.1875 26.8125 C-4 24 -4 24 -2.46875 21.9375 C-0.37011163 17.74022326 -0.43345721 13.82188927 -0.3125 9.1875 C-0.27833984 8.30384766 -0.24417969 7.42019531 -0.20898438 6.50976562 C-0.12689567 4.34027833 -0.06176121 2.1701611 0 0 Z " fill="#26EBC2" transform="translate(80,12)"/>
<path d="M0 0 C-3.30800212 3.61475921 -6.96428509 6.13701562 -11.0625 8.75 C-11.68705078 9.16121094 -12.31160156 9.57242188 -12.95507812 9.99609375 C-17.63059333 13 -17.63059333 13 -21 13 C-21.33 12.01 -21.66 11.02 -22 10 C-20 8 -20 8 -17.375 7.875 C-16.59125 7.91625 -15.8075 7.9575 -15 8 C-14.67 6.68 -14.34 5.36 -14 4 C-10.535 3.505 -10.535 3.505 -7 3 C-6.67 2.01 -6.34 1.02 -6 0 C-3 -1 -3 -1 0 0 Z " fill="#28E8BF" transform="translate(163,104)"/>
<path d="M0 0 C0.99 0.33 1.98 0.66 3 1 C2.44570312 1.38671875 1.89140625 1.7734375 1.3203125 2.171875 C0.23363281 2.95304688 0.23363281 2.95304688 -0.875 3.75 C-1.59429687 4.26046875 -2.31359375 4.7709375 -3.0546875 5.296875 C-5.85287316 7.74669216 -6.85938958 9.86865678 -7.31884766 13.56542969 C-7.35026855 14.50805664 -7.38168945 15.45068359 -7.4140625 16.421875 C-7.45273438 17.44667969 -7.49140625 18.47148437 -7.53125 19.52734375 C-7.5621875 20.59082031 -7.593125 21.65429688 -7.625 22.75 C-7.66367188 23.82894531 -7.70234375 24.90789063 -7.7421875 26.01953125 C-7.83634631 28.67951775 -7.92197387 31.3394994 -8 34 C-7.01 34.33 -6.02 34.66 -5 35 C-3.875 37.4375 -3.875 37.4375 -3 40 C-2.67 40.66 -2.34 41.32 -2 42 C-5.84478875 40.54163185 -7.1822915 38.63541701 -9 35 C-10.21170456 30.92389004 -10.18385214 26.90807237 -10.1875 22.6875 C-10.19974609 21.95337891 -10.21199219 21.21925781 -10.22460938 20.46289062 C-10.23987167 14.72935637 -9.93069261 9.36110179 -6.16015625 4.75 C-5.46792969 4.1725 -4.77570313 3.595 -4.0625 3 C-3.37285156 2.401875 -2.68320313 1.80375 -1.97265625 1.1875 C-1.32167969 0.795625 -0.67070313 0.40375 0 0 Z " fill="#107668" transform="translate(107,0)"/>
<path d="M0 0 C0.33 0 0.66 0 1 0 C1 2.64 1 5.28 1 8 C1.66 8 2.32 8 3 8 C3.09796875 8.58007812 3.1959375 9.16015625 3.296875 9.7578125 C4.31994256 15.10245855 5.93089206 18.44925375 9 23 C8.75 25.375 8.75 25.375 8 27 C3.24550568 23.83033712 0.92582122 20.27507551 -1 15 C-1.3125 12.0625 -1.3125 12.0625 -1 10 C-0.67 9.67 -0.34 9.34 0 9 C0.07179964 7.48071962 0.08392007 5.95832518 0.0625 4.4375 C0.05347656 3.61121094 0.04445312 2.78492187 0.03515625 1.93359375 C0.02355469 1.29550781 0.01195313 0.65742187 0 0 Z " fill="#1DEEC1" transform="translate(1,71)"/>
<path d="M0 0 C4.92289989 0.43437352 7.48750825 2.643619 11 6 C13.10315087 9.27698192 13.25704763 11.93476167 13.265625 15.7890625 C13.26820312 16.89507813 13.27078125 18.00109375 13.2734375 19.140625 C13.26570313 20.29046875 13.25796875 21.4403125 13.25 22.625 C13.25773437 23.78257813 13.26546875 24.94015625 13.2734375 26.1328125 C13.27085938 27.23625 13.26828125 28.3396875 13.265625 29.4765625 C13.26336914 30.48799316 13.26111328 31.49942383 13.25878906 32.54150391 C13 35 13 35 11 37 C11.33 28.75 11.66 20.5 12 12 C11.34 12 10.68 12 10 12 C9.4225 11.071875 8.845 10.14375 8.25 9.1875 C5.78228833 5.69157513 3.90285207 4.5966213 0 3 C0 2.01 0 1.02 0 0 Z " fill="#1B9383" transform="translate(70,0)"/>
<path d="M0 0 C4.04526249 3.71726824 7.58718666 7.25465717 8.21484375 12.94921875 C8.28518942 17.052716 7.80571515 20.97142424 7 25 C6.67 25 6.34 25 6 25 C5.8046875 23.046875 5.609375 21.09375 5.4140625 19.140625 C5.09410283 16.95980576 5.09410283 16.95980576 3.9921875 15.015625 C2.57202299 12.13056638 2.56089345 9.38904431 2.34375 6.21875 C1.97120598 3.81414771 1.18866568 2.10892298 0 0 Z " fill="#20B89B" transform="translate(172,36)"/>
<path d="M0 0 C0.66 0 1.32 0 2 0 C2 1.32 2 2.64 2 4 C2.53625 4.2475 3.0725 4.495 3.625 4.75 C6.5823982 6.30652537 9.29724051 8.03435673 12 10 C12 10.66 12 11.32 12 12 C17.94 11.505 17.94 11.505 24 11 C21.34500624 13.65499376 19.95036703 13.32897553 16.25 13.375 C10.98836927 13.28059275 7.97557151 12.67740364 4 9 C0 4.78947368 0 4.78947368 0 0 Z " fill="#1D9486" transform="translate(98,121)"/>
<path d="M0 0 C4.37853771 0.50203843 8.000161 0.3437185 12.3125 -0.5 C9.6875 3.375 9.6875 3.375 6.3125 4.5 C4.75131572 4.56740865 3.1874748 4.58514456 1.625 4.5625 C0.41263672 4.54896484 0.41263672 4.54896484 -0.82421875 4.53515625 C-1.74654297 4.51775391 -1.74654297 4.51775391 -2.6875 4.5 C-3.0175 3.84 -3.3475 3.18 -3.6875 2.5 C-4.6775 1.84 -5.6675 1.18 -6.6875 0.5 C-4.13277755 -0.77736122 -2.81218859 -0.37897794 0 0 Z " fill="#12F3C1" transform="translate(112.6875,128.5)"/>
<path d="M0 0 C0.66 0.33 1.32 0.66 2 1 C1.67 1.99 1.34 2.98 1 4 C-1.0625 4.6875 -1.0625 4.6875 -3 5 C-3 5.99 -3 6.98 -3 8 C-3.928125 8.433125 -4.85625 8.86625 -5.8125 9.3125 C-8.53402693 10.75330838 -9.94268891 11.84472171 -12 14 C-12.99 14.33 -13.98 14.66 -15 15 C-13.6291635 10.56220725 -11.73222307 8.59847184 -8.0625 5.8125 C-7.18722656 5.13832031 -6.31195313 4.46414062 -5.41015625 3.76953125 C-3.6384429 2.46874333 -1.82881123 1.21920748 0 0 Z " fill="#28A995" transform="translate(19,27)"/>
<path d="M0 0 C0.33 0 0.66 0 1 0 C1.1465954 3.66623812 1.23449874 7.331712 1.3125 11 C1.3753418 12.54494141 1.3753418 12.54494141 1.43945312 14.12109375 C1.55069788 21.1072645 0.55116903 25.60490558 -4 31 C-6.125 33.0625 -6.125 33.0625 -8 34 C-8.99 33.67 -9.98 33.34 -11 33 C-9.02 32.505 -9.02 32.505 -7 32 C-7 31.01 -7 30.02 -7 29 C-6.01 29 -5.02 29 -4 29 C-4 27.35 -4 25.7 -4 24 C-3.01 24 -2.02 24 -1 24 C-0.67 16.08 -0.34 8.16 0 0 Z " fill="#1D9C87" transform="translate(81,99)"/>
<path d="M0 0 C0.061875 0.61875 0.12375 1.2375 0.1875 1.875 C0.455625 2.57625 0.72375 3.2775 1 4 C2.6476038 4.71247732 4.31763529 5.37400383 6 6 C7.32 7.32 8.64 8.64 10 10 C4.06 9.01 4.06 9.01 -2 8 C-2 7.34 -2 6.68 -2 6 C-2.66 6 -3.32 6 -4 6 C-3.67 4.35 -3.34 2.7 -3 1 C-2.01 0.67 -1.02 0.34 0 0 Z " fill="#1CA68C" transform="translate(41,65)"/>
<path d="M0 0 C6.98203593 0.95209581 6.98203593 0.95209581 10 3 C10.68486725 4.32407669 11.34870203 5.65909241 12 7 C13.62746694 8.70496537 15.28891311 10.37897032 17 12 C15.35 13.32 13.7 14.64 12 16 C11.34 15.67 10.68 15.34 10 15 C10.495 14.54625 10.99 14.0925 11.5 13.625 C13.22609337 12.12364481 13.22609337 12.12364481 13 10 C10.86126839 8.39888911 8.72813161 6.90361986 6.5 5.4375 C4.31181574 3.98401794 2.15070582 2.50963005 0 1 C0 0.67 0 0.34 0 0 Z " fill="#259884" transform="translate(124,55)"/>
<path d="M0 0 C2.64 0.66 5.28 1.32 8 2 C8 2.99 8 3.98 8 5 C8.721875 5.0825 9.44375 5.165 10.1875 5.25 C13.60939065 6.16250417 15.43946748 7.58171929 18 10 C18.33 10.99 18.66 11.98 19 13 C14.29265588 11.42488485 10.65709989 8.8278266 6.6875 5.9375 C6.04232422 5.47794922 5.39714844 5.01839844 4.73242188 4.54492188 C3.13339855 3.39260983 1.56372663 2.19977402 0 1 C0 0.67 0 0.34 0 0 Z " fill="#219D88" transform="translate(105,42)"/>
<path d="M0 0 C2.3125 -0.25 2.3125 -0.25 5 0 C6.625 1.9375 6.625 1.9375 8 4 C8.99 4.33 9.98 4.66 11 5 C12.84499398 6.87617698 14.3683599 8.92737609 16 11 C12.24731782 11 11.03319234 9.89851124 8 7.75 C7.13375 7.14671875 6.2675 6.5434375 5.375 5.921875 C3.13003385 4.10522476 1.60379937 2.38459643 0 0 Z " fill="#21A990" transform="translate(9,98)"/>
<path d="M0 0 C6.4 -0.36923077 6.4 -0.36923077 9.4375 1.5 C9.953125 1.995 10.46875 2.49 11 3 C8.375 4.625 8.375 4.625 5 6 C1.625 5.1875 1.625 5.1875 -1 4 C-0.67 2.68 -0.34 1.36 0 0 Z " fill="#08E0AC" transform="translate(40,73)"/>
<path d="M0 0 C0.66 0.33 1.32 0.66 2 1 C1.566875 1.37125 1.13375 1.7425 0.6875 2.125 C-4.50340946 7.89267718 -4.38155411 13.5307982 -4.1875 20.875 C-4.17396484 21.84953125 -4.16042969 22.8240625 -4.14648438 23.828125 C-4.11131962 26.21932863 -4.0621067 28.60936975 -4 31 C-4.66 31 -5.32 31 -6 31 C-6.08736736 27.27098186 -6.14051482 23.54222835 -6.1875 19.8125 C-6.21263672 18.75740234 -6.23777344 17.70230469 -6.26367188 16.61523438 C-6.27333984 15.59365234 -6.28300781 14.57207031 -6.29296875 13.51953125 C-6.31653442 12.11344604 -6.31653442 12.11344604 -6.34057617 10.67895508 C-5.76357553 6.14029695 -3.32996033 3.01282125 0 0 Z " fill="#34E4C2" transform="translate(105,3)"/>
<path d="M0 0 C0.66 0.33 1.32 0.66 2 1 C2 7.93 2 14.86 2 22 C1.01 22 0.02 22 -1 22 C-1 23.65 -1 25.3 -1 27 C-1.66 27 -2.32 27 -3 27 C-3 24.03 -3 21.06 -3 18 C-2.01 18 -1.02 18 0 18 C0 12.06 0 6.12 0 0 Z " fill="#16F3C2" transform="translate(78,101)"/>
<path d="M0 0 C1.75471386 0.90761062 3.50359264 1.82650711 5.25 2.75 C6.22453125 3.26046875 7.1990625 3.7709375 8.203125 4.296875 C10.91493199 5.94819881 12.86796403 7.66491299 15 10 C8.539801 10.36567164 8.539801 10.36567164 6.0625 8.6875 C5 7 5 7 5 4 C3.68 4 2.36 4 1 4 C0.67 2.68 0.34 1.36 0 0 Z " fill="#20AA92" transform="translate(147,18)"/>
<path d="M0 0 C-1.69853005 1.69853005 -3.40120609 3.38940591 -5.125 5.0625 C-7.05820487 6.86588042 -7.05820487 6.86588042 -8 9 C-9.32 8.67 -10.64 8.34 -12 8 C-12 5 -12 5 -10.64453125 3.61328125 C-4.57852107 -0.69371531 -4.57852107 -0.69371531 0 0 Z " fill="#20CBAA" transform="translate(119,83)"/>
<path d="M0 0 C0 0.66 0 1.32 0 2 C-0.99 2.33 -1.98 2.66 -3 3 C-3.13277344 3.63421875 -3.26554687 4.2684375 -3.40234375 4.921875 C-4 7 -4 7 -6.06640625 8.265625 C-6.89011719 8.59046875 -7.71382812 8.9153125 -8.5625 9.25 C-9.38878906 9.58515625 -10.21507812 9.9203125 -11.06640625 10.265625 C-11.70449219 10.50796875 -12.34257813 10.7503125 -13 11 C-11.71318771 7.03232877 -10.49056627 5.25860171 -7 3 C-6.319375 2.443125 -5.63875 1.88625 -4.9375 1.3125 C-3 0 -3 0 0 0 Z " fill="#1EE1B7" transform="translate(49,57)"/>
<path d="M0 0 C0.99 0.66 1.98 1.32 3 2 C1.55218207 5.44428265 -0.27694609 7.36130962 -3.125 9.75 C-4.21167969 10.67039062 -4.21167969 10.67039062 -5.3203125 11.609375 C-5.87460938 12.06828125 -6.42890625 12.5271875 -7 13 C-7.66 12.67 -8.32 12.34 -9 12 C-9 11.34 -9 10.68 -9 10 C-7.68 10 -6.36 10 -5 10 C-5.33 8.68 -5.66 7.36 -6 6 C-4.68 6 -3.36 6 -2 6 C-1.67 5.01 -1.34 4.02 -1 3 C-0.67 2.01 -0.34 1.02 0 0 Z " fill="#1FA991" transform="translate(172,91)"/>
<path d="M0 0 C4.54757942 1.62773138 8.32320346 4.83407832 12.1171875 7.7578125 C9.62625939 9.00327655 8.70638017 8.5345703 6.1171875 7.7578125 C6.1171875 7.0978125 6.1171875 6.4378125 6.1171875 5.7578125 C5.5396875 5.6340625 4.9621875 5.5103125 4.3671875 5.3828125 C2.09382983 4.75132426 0.1918346 3.86923059 -1.8828125 2.7578125 C-1.8828125 2.0978125 -1.8828125 1.4378125 -1.8828125 0.7578125 C-3.8628125 1.0878125 -5.8428125 1.4178125 -7.8828125 1.7578125 C-4.7683455 -0.31849883 -3.61070758 -0.60436736 0 0 Z " fill="#1EA08B" transform="translate(121.8828125,0.2421875)"/>
<path d="M0 0 C3.60674662 1.76329835 6.5930807 3.97621699 9.8125 6.375 C8.4925 6.705 7.1725 7.035 5.8125 7.375 C5.8125 6.715 5.8125 6.055 5.8125 5.375 C4.86375 5.395625 3.915 5.41625 2.9375 5.4375 C-0.1875 5.375 -0.1875 5.375 -2.1875 4.375 C-2.1875 3.385 -2.1875 2.395 -2.1875 1.375 C-2.8475 1.045 -3.5075 0.715 -4.1875 0.375 C-2.1875 -0.625 -2.1875 -0.625 0 0 Z " fill="#1EAC93" transform="translate(53.1875,75.625)"/>
<path d="M0 0 C1.38618262 4.85840104 0.98256697 9.71324946 0.78515625 14.71289062 C0.69333753 19.45824893 1.24771236 21.9768473 4 26 C3.67 26.66 3.34 27.32 3 28 C0 26 0 26 -0.67919922 24.18432617 C-1.0326849 21.77744913 -1.12959307 19.48398132 -1.1328125 17.05078125 C-1.13474609 15.65569336 -1.13474609 15.65569336 -1.13671875 14.23242188 C-1.13285156 13.26884766 -1.12898438 12.30527344 -1.125 11.3125 C-1.12886719 10.33732422 -1.13273437 9.36214844 -1.13671875 8.35742188 C-1.13542969 7.43123047 -1.13414063 6.50503906 -1.1328125 5.55078125 C-1.13168457 4.70169189 -1.13055664 3.85260254 -1.12939453 2.9777832 C-1 1 -1 1 0 0 Z " fill="#1DEEC1" transform="translate(100,99)"/>
<path d="M0 0 C1.98 0 3.96 0 6 0 C4.02 0.99 4.02 0.99 2 2 C2 2.99 2 3.98 2 5 C-1 7 -1 7 -4 7 C-4 7.66 -4 8.32 -4 9 C-5.32 8.67 -6.64 8.34 -8 8 C-5.6875 5.5 -5.6875 5.5 -3 3 C-2.01 3 -1.02 3 0 3 C0 2.01 0 1.02 0 0 Z " fill="#17F2C1" transform="translate(57,48)"/>
<path d="M0 0 C3.94139078 1.66751148 6.7892812 4.22710649 10 7 C9.01 8.485 9.01 8.485 8 10 C4.51866169 8.60746468 3.52113967 7.36823784 2 4 C1.34 3.67 0.68 3.34 0 3 C0 2.01 0 1.02 0 0 Z " fill="#23C4A7" transform="translate(162,28)"/>
<path d="M0 0 C-0.38520564 2.53910197 -0.70097943 3.72751123 -2.62890625 5.484375 C-3.26699219 5.90203125 -3.90507812 6.3196875 -4.5625 6.75 C-5.20316406 7.17796875 -5.84382813 7.6059375 -6.50390625 8.046875 C-7.24447266 8.51867187 -7.24447266 8.51867187 -8 9 C-8.66 8.67 -9.32 8.34 -10 8 C-9.67 7.34 -9.34 6.68 -9 6 C-9.33 5.34 -9.66 4.68 -10 4 C-8.02 3.67 -6.04 3.34 -4 3 C-4 2.34 -4 1.68 -4 1 C-2 0 -2 0 0 0 Z " fill="#19A38F" transform="translate(132,123)"/>
<path d="M0 0 C3.83663072 1.34929464 6.65172569 3.07751025 9.8125 5.625 C10.99779297 6.57246094 10.99779297 6.57246094 12.20703125 7.5390625 C12.79871094 8.02117187 13.39039062 8.50328125 14 9 C11.25509788 10.37245106 9.87939419 9.93580311 7 9 C5.9375 7.0625 5.9375 7.0625 5 5 C3.67479497 4.31731862 2.34187818 3.6492959 1 3 C0.67 2.01 0.34 1.02 0 0 Z " fill="#1EA58F" transform="translate(63,83)"/>
<path d="M0 0 C0.99 0.33 1.98 0.66 3 1 C-0.02299093 4.88670262 -2.45945591 7.84921596 -7 10 C-7.99 10 -8.98 10 -10 10 C-9.34 8.68 -8.68 7.36 -8 6 C-6.35 6 -4.7 6 -3 6 C-2.67 5.01 -2.34 4.02 -2 3 C-1.34 3 -0.68 3 0 3 C0 2.01 0 1.02 0 0 Z " fill="#2EBDA6" transform="translate(78,36)"/>
<path d="M0 0 C0.66 0.33 1.32 0.66 2 1 C1.67 1.99 1.34 2.98 1 4 C1.66 4.33 2.32 4.66 3 5 C-3.5 7.125 -3.5 7.125 -8 6 C-5.36 4.02 -2.72 2.04 0 0 Z " fill="#21C5A7" transform="translate(29,20)"/>
<path d="M0 0 C-3.02272532 3.25524265 -6.25718301 5.61820737 -10 8 C-10.66 7.67 -11.32 7.34 -12 7 C-12 6.34 -12 5.68 -12 5 C-11.38125 4.9175 -10.7625 4.835 -10.125 4.75 C-7.82027141 4.20605562 -7.82027141 4.20605562 -6.9375 2 C-6.628125 1.34 -6.31875 0.68 -6 0 C-3 -1 -3 -1 0 0 Z " fill="#20A58D" transform="translate(163,104)"/>
<path d="M0 0 C0.66 0.33 1.32 0.66 2 1 C1.45773019 4.79588866 -0.20127563 6.47211993 -3 9 C-3 8.34 -3 7.68 -3 7 C-3.66 7 -4.32 7 -5 7 C-5.33 7.66 -5.66 8.32 -6 9 C-5.52797514 4.75177626 -3.03344482 2.80010291 0 0 Z " fill="#1CB99D" transform="translate(104,90)"/>
<path d="M0 0 C1.79133978 -0.05391993 3.58313899 -0.09275571 5.375 -0.125 C6.37273437 -0.14820312 7.37046875 -0.17140625 8.3984375 -0.1953125 C11 0 11 0 13 2 C8.05 2.66 3.1 3.32 -2 4 C-1.34 2.68 -0.68 1.36 0 0 Z " fill="#33CDB2" transform="translate(59,0)"/>
<path d="M0 0 C-2.75170751 2.9555377 -5.41970299 5.11563315 -9 7 C-9.66 7 -10.32 7 -11 7 C-11 6.01 -11 5.02 -11 4 C-9.68 3.67 -8.36 3.34 -7 3 C-7 2.34 -7 1.68 -7 1 C-4.53721199 -0.231394 -2.7204945 -0.07159196 0 0 Z " fill="#22B59B" transform="translate(70,46)"/>
<path d="M0 0 C0.66 0.33 1.32 0.66 2 1 C-1.3621637 4.65882521 -4.36050852 7.14420341 -9 9 C-9.66 8.67 -10.32 8.34 -11 8 C-7.37 5.36 -3.74 2.72 0 0 Z " fill="#1D9F8D" transform="translate(51,5)"/>
<path d="M0 0 C3.53086549 1.30610777 6.55718156 2.84884949 9.6875 4.9375 C10.45449219 5.44152344 11.22148438 5.94554688 12.01171875 6.46484375 C14 8 14 8 16 11 C11.87321179 9.55901911 8.69813572 7.52700506 5.1875 4.9375 C4.21167969 4.22464844 3.23585937 3.51179688 2.23046875 2.77734375 C1.49441406 2.19082031 0.75835937 1.60429688 0 1 C0 0.67 0 0.34 0 0 Z " fill="#39CCB1" transform="translate(36,116)"/>
<path d="M0 0 C2.97 0.495 2.97 0.495 6 1 C6 1.66 6 2.32 6 3 C7.32 3 8.64 3 10 3 C10.66 4.65 11.32 6.3 12 8 C7.44328408 6.48109469 3.68276708 4.04597738 0 1 C0 0.67 0 0.34 0 0 Z " fill="#1A8F7F" transform="translate(25,110)"/>
<path d="M0 0 C1.81495662 0.44850658 3.62693134 0.90909571 5.4375 1.375 C6.95150391 1.75785156 6.95150391 1.75785156 8.49609375 2.1484375 C11 3 11 3 12 5 C11.0625 7.125 11.0625 7.125 10 9 C10 7.68 10 6.36 10 5 C8.741875 4.67 7.48375 4.34 6.1875 4 C5.47980469 3.814375 4.77210937 3.62875 4.04296875 3.4375 C1.85929991 2.8952993 1.85929991 2.8952993 -1 3 C-0.67 2.01 -0.34 1.02 0 0 Z " fill="#1AE3B7" transform="translate(67,90)"/>
<path d="M0 0 C0.66 0.33 1.32 0.66 2 1 C1.67 1.99 1.34 2.98 1 4 C-1.0625 4.6875 -1.0625 4.6875 -3 5 C-3 5.99 -3 6.98 -3 8 C-4.65 8.33 -6.3 8.66 -8 9 C-7.23587913 7.87043002 -6.46340197 6.74651022 -5.6875 5.625 C-5.25824219 4.99851562 -4.82898438 4.37203125 -4.38671875 3.7265625 C-3 2 -3 2 0 0 Z " fill="#26D1B2" transform="translate(19,27)"/>
<path d="M0 0 C0.33 1.32 0.66 2.64 1 4 C1.66 4 2.32 4 3 4 C4.76462683 7.08809695 5 8.23312136 5 12 C5.66 12.33 6.32 12.66 7 13 C6.01 13 5.02 13 4 13 C-0.59225513 4.738041 -0.59225513 4.738041 0 0 Z " fill="#1D9182" transform="translate(0,81)"/>
<path d="M0 0 C-0.40683495 2.35964273 -0.89814339 3.85934088 -2.3125 5.8125 C-4 7 -4 7 -6.1875 6.6875 C-6.785625 6.460625 -7.38375 6.23375 -8 6 C-3.38461538 0 -3.38461538 0 0 0 Z " fill="#20EAC0" transform="translate(142,67)"/>
<path d="M0 0 C0.8971875 0.309375 0.8971875 0.309375 1.8125 0.625 C-1.9375 3.625 -1.9375 3.625 -4.1875 3.625 C-4.1875 4.285 -4.1875 4.945 -4.1875 5.625 C-5.8375 5.625 -7.4875 5.625 -9.1875 5.625 C-3.21691176 -0.55147059 -3.21691176 -0.55147059 0 0 Z " fill="#20B39B" transform="translate(134.1875,71.375)"/>
<path d="M0 0 C0.66 0.33 1.32 0.66 2 1 C-0.05233685 3.2477975 -1.00667261 4.0022242 -4 5 C-5.56118428 5.06740865 -7.1250252 5.08514456 -8.6875 5.0625 C-9.89986328 5.04896484 -9.89986328 5.04896484 -11.13671875 5.03515625 C-12.05904297 5.01775391 -12.05904297 5.01775391 -13 5 C-13 4.67 -13 4.34 -13 4 C-12.39671875 3.87882813 -11.7934375 3.75765625 -11.171875 3.6328125 C-10.37265625 3.46523437 -9.5734375 3.29765625 -8.75 3.125 C-7.96109375 2.96257812 -7.1721875 2.80015625 -6.359375 2.6328125 C-3.96665457 2.08251721 -3.96665457 2.08251721 -1.828125 0.8671875 C-1.22484375 0.58101562 -0.6215625 0.29484375 0 0 Z " fill="#3AD7BC" transform="translate(123,128)"/>
<path d="M0 0 C2.64 0.66 5.28 1.32 8 2 C7.01 2.495 7.01 2.495 6 3 C6 3.66 6 4.32 6 5 C4.35 5.33 2.7 5.66 1 6 C0.67 4.02 0.34 2.04 0 0 Z " fill="#10F5C1" transform="translate(122,121)"/>
<path d="M0 0 C3.91402949 1.26941497 5.79072873 2.51167694 8 6 C6.35 7.32 4.7 8.64 3 10 C2.34 9.67 1.68 9.34 1 9 C1.495 8.54625 1.99 8.0925 2.5 7.625 C4.22609337 6.12364481 4.22609337 6.12364481 4 4 C2.70766393 2.62689293 1.37562854 1.28965176 0 0 Z " fill="#066358" transform="translate(133,61)"/>
<path d="M0 0 C5.4611399 0.96891192 5.4611399 0.96891192 8 2 C9.5 4.625 9.5 4.625 10 7 C5.56541027 5.6062718 3.12621626 3.39417765 0 0 Z " fill="#1B937D" transform="translate(105,42)"/>
<path d="M0 0 C1.32 0.33 2.64 0.66 4 1 C4 1.99 4 2.98 4 4 C4.99 4.33 5.98 4.66 7 5 C7.33 5.99 7.66 6.98 8 8 C7.01 8.99 6.02 9.98 5 11 C5 9.35 5 7.7 5 6 C4.34 6 3.68 6 3 6 C3 4.68 3 3.36 3 2 C2.01 1.67 1.02 1.34 0 1 C0 0.67 0 0.34 0 0 Z " fill="#1BEEBF" transform="translate(158,27)"/>
<path d="M0 0 C-0.33 0.66 -0.66 1.32 -1 2 C-2.65 2 -4.3 2 -6 2 C-6 1.34 -6 0.68 -6 0 C-3.50907189 -1.24546405 -2.58919267 -0.7767578 0 0 Z M-8 2 C-7.34 2.33 -6.68 2.66 -6 3 C-7.32 4.32 -8.64 5.64 -10 7 C-9.34 5.35 -8.68 3.7 -8 2 Z " fill="#05DDAC" transform="translate(28,77)"/>
<path d="M0 0 C0 0.99 0 1.98 0 3 C-1.65 3.66 -3.3 4.32 -5 5 C-4.67 3.68 -4.34 2.36 -4 1 C-2.68 0.67 -1.36 0.34 0 0 Z M-7 5 C-6.34 5.33 -5.68 5.66 -5 6 C-6.98 6.99 -6.98 6.99 -9 8 C-9 7.34 -9 6.68 -9 6 C-8.34 5.67 -7.68 5.34 -7 5 Z " fill="#16F3C2" transform="translate(25,26)"/>
<path d="M0 0 C4.54748603 -0.36871508 4.54748603 -0.36871508 6.6875 1.375 C7.120625 1.91125 7.55375 2.4475 8 3 C8.66 3.66 9.32 4.32 10 5 C3.47692308 4.50769231 3.47692308 4.50769231 1.0625 1.9375 C0.711875 1.298125 0.36125 0.65875 0 0 Z " fill="#1AF0C0" transform="translate(49,123)"/>
<path d="M0 0 C-1.25 2 -1.25 2 -3 4 C-4.32 4 -5.64 4 -7 4 C-6.625 2.0625 -6.625 2.0625 -6 0 C-3.50907189 -1.24546405 -2.58919267 -0.7767578 0 0 Z " fill="#0DF7C2" transform="translate(136,75)"/>
<path d="M0 0 C2.92879371 0.62759865 5.36095629 1.58622659 8 3 C7.67 4.32 7.34 5.64 7 7 C5.83040013 6.02433888 4.66438823 5.044375 3.5 4.0625 C2.8503125 3.51722656 2.200625 2.97195312 1.53125 2.41015625 C1.0259375 1.94480469 0.520625 1.47945312 0 1 C0 0.67 0 0.34 0 0 Z " fill="#2BC7AA" transform="translate(134,60)"/>
<path d="M0 0 C1.98 0 3.96 0 6 0 C6.66 1.65 7.32 3.3 8 5 C7.236875 4.690625 6.47375 4.38125 5.6875 4.0625 C3.81210323 3.32106407 1.91315348 2.63771783 0 2 C0 1.34 0 0.68 0 0 Z " fill="#1CE4B8" transform="translate(35,114)"/>
<path d="M0 0 C0.99 0 1.98 0 3 0 C5 3 5 3 4.625 5.1875 C4.41875 5.785625 4.2125 6.38375 4 7 C1 5 1 5 0.3125 2.375 C0.209375 1.59125 0.10625 0.8075 0 0 Z " fill="#24D8B5" transform="translate(5,91)"/>
<path d="M0 0 C5.75 0.75 5.75 0.75 8 3 C6.02 3.33 4.04 3.66 2 4 C1.34 2.68 0.68 1.36 0 0 Z " fill="#1ED6AE" transform="translate(43,73)"/>
<path d="M0 0 C0 0.66 0 1.32 0 2 C-1.32 2.33 -2.64 2.66 -4 3 C-4 3.66 -4 4.32 -4 5 C-4.66 5 -5.32 5 -6 5 C-6.33 5.99 -6.66 6.98 -7 8 C-7.33 7.34 -7.66 6.68 -8 6 C-5.8442568 1.79116804 -4.90656755 0 0 0 Z " fill="#0DF5C0" transform="translate(26,74)"/>
<path d="M0 0 C0.66 0.33 1.32 0.66 2 1 C1.67 1.99 1.34 2.98 1 4 C0.01 3.67 -0.98 3.34 -2 3 C-2.33 3.99 -2.66 4.98 -3 6 C-4.32 5.67 -5.64 5.34 -7 5 C-4.69 3.35 -2.38 1.7 0 0 Z " fill="#1CAA91" transform="translate(38,14)"/>
<path d="M0 0 C0 0.66 0 1.32 0 2 C-3.12503664 4.08335776 -5.27136471 5 -9 5 C-9 4.34 -9 3.68 -9 3 C-2.25 0 -2.25 0 0 0 Z " fill="#26E8BF" transform="translate(167,99)"/>
<path d="M0 0 C0.66 0.33 1.32 0.66 2 1 C1.67 2.65 1.34 4.3 1 6 C-1.475 5.01 -1.475 5.01 -4 4 C-2.68 2.68 -1.36 1.36 0 0 Z " fill="#0FDCAD" transform="translate(29,103)"/>
<path d="M0 0 C1.32 0.33 2.64 0.66 4 1 C4.33 2.65 4.66 4.3 5 6 C3.0625 5.25 3.0625 5.25 1 4 C0.25 1.875 0.25 1.875 0 0 Z " fill="#14F2BF" transform="translate(14,97)"/>
<path d="M0 0 C-2.31 1.32 -4.62 2.64 -7 4 C-7.33 3.01 -7.66 2.02 -8 1 C-2.25 -1.125 -2.25 -1.125 0 0 Z " fill="#1BA28B" transform="translate(151,113)"/>
</svg>
